<svg width="18" height="20" viewBox="0 0 18 20" fill="none" xmlns="http://www.w3.org/2000/svg">
<path d="M17.8657 15.6C17.8657 15.6 15.4248 12.467 15.4248 9.33304V6.667C15.4248 3 12.5338 0 9 0C5.46624 0 2.57524 3 2.57524 6.667V9.33304C2.57524 12.467 0.198837 15.533 0.134271 15.6C0.00610339 15.8 -0.0584623 16.067 0.0697054 16.333C0.130308 16.4355 0.215349 16.5202 0.316626 16.5786C0.417902 16.6371 0.531997 16.6676 0.647906 16.667H17.3521C17.6085 16.667 17.8011 16.533 17.9303 16.267C18.0585 16.067 17.9939 15.8 17.8657 15.6ZM6.49447 18C6.75177 19.133 7.77904 20 9 20C10.221 20 11.1847 19.133 11.5055 18H6.49447Z" fill="#676767"/>
</svg>
