<svg width="18" height="20" viewBox="0 0 18 20" fill="none" xmlns="http://www.w3.org/2000/svg">
<path d="M7.61906 0H10.1587V7.49995H7.61906V0Z" fill="#676767"/>
<path d="M14.8567 4.74939C14.3488 4.2494 13.5876 4.37528 13.0797 4.87528C12.5716 5.37528 12.6984 6.12468 13.2063 6.62468C14.4767 7.75056 15.238 9.49995 15.238 11.2493C15.238 14.7505 12.4438 17.4999 8.8883 17.4999C5.334 17.4999 2.5398 14.7493 2.5398 11.2493C2.5398 9.49995 3.30229 7.75056 4.69819 6.62585C4.92991 6.39798 5.07029 6.09545 5.09357 5.77385C5.11684 5.45225 5.02144 5.13318 4.82488 4.87528C4.59361 4.64732 4.2866 4.5091 3.96016 4.48598C3.63373 4.46286 3.30977 4.55638 3.04773 4.74939C1.14271 6.37644 0.000164764 8.75055 0.000164764 11.2506C-0.00697646 12.4016 0.218087 13.5426 0.662303 14.6073C1.10652 15.6722 1.76105 16.6395 2.58795 17.4533C3.41484 18.2672 4.39763 18.9114 5.47936 19.3486C6.56108 19.7856 7.7202 20.0071 8.8895 19.9998C10.0588 20.0069 11.2179 19.7853 12.2995 19.3481C13.3813 18.9108 14.3639 18.2665 15.1907 17.4525C16.0175 16.6386 16.6719 15.6711 17.116 14.6063C17.56 13.5414 17.7849 12.4004 17.7776 11.2493C17.7776 8.75055 16.7618 6.37527 14.8567 4.75057V4.74939Z" fill="#676767"/>
</svg>
