<svg width="20" height="20" viewBox="0 0 20 20" fill="none" xmlns="http://www.w3.org/2000/svg">
<path d="M19.72 8.38892L17.1576 8.04776C16.9929 7.44316 16.7518 6.86204 16.44 6.31845L18.0118 4.26563C18.0591 4.20359 18.0824 4.12646 18.0772 4.04858C18.072 3.97069 18.0387 3.89733 17.9835 3.84213L16.1588 2.01635C16.1037 1.96094 16.0304 1.9275 15.9524 1.9223C15.8744 1.91711 15.7972 1.94051 15.7353 1.98812L13.6812 3.55861C13.1376 3.24687 12.5564 3.00572 11.9518 2.84101L11.6118 0.28116C11.6015 0.203297 11.5632 0.131833 11.5041 0.0800992C11.445 0.0283656 11.3691 -0.000104388 11.2906 2.87619e-07H8.70941C8.63138 0.00017822 8.55606 0.0286525 8.49743 0.0801403C8.4388 0.131628 8.40084 0.202634 8.39059 0.279984L8.04941 2.84219C7.44478 3.0069 6.86362 3.24805 6.32 3.55979L4.26471 1.98812C4.20276 1.94051 4.12557 1.91711 4.04761 1.9223C3.96965 1.9275 3.89626 1.96094 3.84118 2.01635L2.01529 3.84095C1.9601 3.89616 1.92682 3.96951 1.92163 4.0474C1.91643 4.12529 1.93968 4.20241 1.98706 4.26446L3.55765 6.31845C3.25059 6.85607 3.00706 7.43603 2.84 8.04776L0.278824 8.38892C0.201584 8.39969 0.130837 8.43801 0.0796045 8.4968C0.0283721 8.5556 0.000102638 8.63092 0 8.7089L0 11.2899C0 11.4511 0.12 11.5876 0.28 11.6087L2.84235 11.9499C3.00824 12.5616 3.25059 13.1416 3.56 13.6792L1.98824 15.7344C1.94086 15.7964 1.91761 15.8735 1.9228 15.9514C1.928 16.0293 1.96128 16.1027 2.01647 16.1579L3.84118 17.9836C3.89639 18.0388 3.96975 18.0721 4.04764 18.0773C4.12553 18.0825 4.20266 18.0593 4.26471 18.0119L6.31882 16.4414C6.85765 16.7484 7.43647 16.9919 8.04824 17.159L8.38941 19.72C8.39969 19.7976 8.43782 19.8687 8.4967 19.9202C8.55558 19.9718 8.63118 20.0001 8.70941 20H11.2906C11.3686 19.9998 11.4439 19.9713 11.5026 19.9199C11.5612 19.8684 11.5992 19.7974 11.6094 19.72L11.9506 17.1578C12.5552 16.9931 13.1364 16.752 13.68 16.4402L15.7341 18.0119C15.7962 18.0593 15.8733 18.0825 15.9512 18.0773C16.0291 18.0721 16.1024 18.0388 16.1576 17.9836L17.9835 16.159C18.0387 16.1038 18.072 16.0305 18.0772 15.9526C18.0824 15.8747 18.0591 15.7976 18.0118 15.7355L16.4412 13.6815C16.7528 13.1379 16.9939 12.5568 17.1588 11.9522L19.72 11.6111C19.7977 11.6005 19.8688 11.5622 19.9203 11.5031C19.9718 11.444 20.0001 11.3683 20 11.2899V8.7089C19.9998 8.63087 19.9713 8.55556 19.9199 8.49693C19.8684 8.43831 19.7974 8.40035 19.72 8.3901V8.38892ZM10 12.9039C9.61386 12.9117 9.23006 12.8424 8.87105 12.7C8.51204 12.5576 8.18505 12.345 7.90922 12.0747C7.63339 11.8044 7.41426 11.4818 7.26467 11.1257C7.11508 10.7697 7.03803 10.3874 7.03803 10.0012C7.03803 9.61498 7.11508 9.23267 7.26467 8.87662C7.41426 8.52058 7.63339 8.19795 7.90922 7.92763C8.18505 7.65732 8.51204 7.44474 8.87105 7.30236C9.23006 7.15997 9.61386 7.09063 10 7.09841C10.7598 7.1137 11.4833 7.42625 12.0152 7.96896C12.5471 8.51167 12.8451 9.24128 12.8451 10.0012C12.8451 10.7611 12.5471 11.4907 12.0152 12.0334C11.4833 12.5761 10.7598 12.8887 10 12.9039V12.9039Z" fill="#676767"/>
</svg>
