<svg width="20" height="24" viewBox="0 0 20 24" fill="none" xmlns="http://www.w3.org/2000/svg">
<path d="M10.7143 4.34211C12.4286 4.34211 13.8571 4.92105 15.2857 5.78947H11.4286V8.68421H20V0H17.1429V3.61842C15.2857 2.17105 13.1429 1.44737 10.7143 1.44737C5.14286 1.44737 0.428571 5.78947 0 11.4342L2.85714 11.7237C3.14286 7.52632 6.57143 4.34211 10.7143 4.34211Z" fill="#676767"/>
<path d="M9.28574 18.8158C7.57143 18.8158 6.14286 18.2368 4.71429 17.3684H8.57143V14.4736H0V23.1579H2.85714V19.5394C4.71429 20.9868 6.85714 21.7105 9.28574 21.7105C14.8571 21.7105 19.5714 17.3684 20 11.7236L17.1429 11.4342C16.8571 15.6315 13.4286 18.8158 9.28574 18.8158Z" fill="#676767"/>
</svg>
